<svg viewBox="0 0 18 20" color="text" width="20px" xmlns="http://www.w3.org/2000/svg" class="sc-grXZZQ ktVOoD"><path fill-rule="evenodd" clip-rule="evenodd" d="M13.4697 0.46967C13.7626 0.176777 14.2374 0.176777 14.5303 0.46967L17.5303 3.46967C17.8232 3.76256 17.8232 4.23744 17.5303 4.53033L14.5303 7.53033C14.2374 7.82322 13.7626 7.82322 13.4697 7.53033C13.1768 7.23744 13.1768 6.76256 13.4697 6.46967L15.1893 4.75H4C3.40326 4.75 2.83097 4.98705 2.40901 5.40901C1.98705 5.83097 1.75 6.40326 1.75 7V10C1.75 10.4142 1.41421 10.75 1 10.75C0.585786 10.75 0.25 10.4142 0.25 10V7C0.25 6.00544 0.645088 5.05161 1.34835 4.34835C2.05161 3.64509 3.00544 3.25 4 3.25H15.1893L13.4697 1.53033C13.1768 1.23744 13.1768 0.762563 13.4697 0.46967Z" fill="#06D6A0"/><path fill-rule="evenodd" clip-rule="evenodd" d="M17 9.25C17.4142 9.25 17.75 9.58579 17.75 10V13C17.75 13.9946 17.3549 14.9484 16.6517 15.6517C15.9484 16.3549 14.9946 16.75 14 16.75H2.81066L4.53033 18.4697C4.82322 18.7626 4.82322 19.2374 4.53033 19.5303C4.23744 19.8232 3.76256 19.8232 3.46967 19.5303L0.46967 16.5303C0.176777 16.2374 0.176777 15.7626 0.46967 15.4697L3.46967 12.4697C3.76256 12.1768 4.23744 12.1768 4.53033 12.4697C4.82322 12.7626 4.82322 13.2374 4.53033 13.5303L2.81066 15.25H14C14.5967 15.25 15.169 15.0129 15.591 14.591C16.0129 14.169 16.25 13.5967 16.25 13V10C16.25 9.58579 16.5858 9.25 17 9.25Z" fill="#06D6A0"/></svg>