<svg xmlns:xlink="http://www.w3.org/1999/xlink" viewBox="0 0 19 18" color="text" width="20" xmlns="http://www.w3.org/2000/svg" class="sc-grXZZQ ktVOoD" height="19" ><path d="M5.24998 4.293L9.42717 2.01465L13.6044 4.293L12.038 5.09343L9.42717 3.677L6.75119 5.09343L5.24998 4.293ZM13.5386 7.12585L12.0374 6.32542L9.42717 7.74185L6.75119 6.32542L5.24998 7.12585V8.7888L7.8608 10.2052V13.0996L9.36201 13.9615L10.8632 13.0996V10.2667L13.474 8.85028V7.12585H13.5386ZM13.5386 11.6825V10.0202L12.038 10.8821V12.483L13.5386 11.6825ZM14.6482 12.2371L12.0374 13.6535V15.3158L16.2145 13.0375V8.4808L14.6482 9.4042V12.2371ZM13.1476 5.70943L14.6488 6.57134V8.23429L16.15 7.37237V5.70943L14.6488 4.84751L13.1476 5.70943ZM7.8608 14.2689V15.9312L9.36201 16.7932L10.8632 15.9312V14.2689L9.36201 15.1308L7.8608 14.2689ZM5.24998 11.6825L6.75119 12.483V10.8206L5.24998 9.95871V11.6825ZM7.8608 5.70943L9.36201 6.57134L10.9284 5.70943L9.42717 4.84751L7.8608 5.70943ZM4.14037 6.57134L5.70673 5.70943L4.14037 4.84751L2.63979 5.70943V7.37178L4.14099 8.2337V6.57134H4.14037ZM4.14037 9.4042L2.63916 8.54228V13.099L6.81635 15.3773V13.715L4.20553 12.2985V9.4042H4.14037Z" fill="#FFFFFF"></path></svg>