<svg viewBox="0 0 20 16" color="text" width="20px" xmlns="http://www.w3.org/2000/svg" class="sc-grXZZQ ktVOoD"><path fill-rule="evenodd" clip-rule="evenodd" d="M3 1.75C2.66848 1.75 2.35054 1.8817 2.11612 2.11612C1.8817 2.35054 1.75 2.66848 1.75 3V5.35424C2.19755 5.48113 2.60976 5.72068 2.94454 6.05546C3.46027 6.57118 3.75 7.27066 3.75 8C3.75 8.72935 3.46027 9.42882 2.94454 9.94454C2.60976 10.2793 2.19755 10.5189 1.75 10.6458V13C1.75 13.3315 1.8817 13.6495 2.11612 13.8839C2.35054 14.1183 2.66848 14.25 3 14.25H12.25V13C12.25 12.5858 12.5858 12.25 13 12.25C13.4142 12.25 13.75 12.5858 13.75 13V14.25H17C17.3315 14.25 17.6495 14.1183 17.8839 13.8839C18.1183 13.6495 18.25 13.3315 18.25 13V10.6458C17.8025 10.5189 17.3902 10.2793 17.0555 9.94454C16.5397 9.42882 16.25 8.72935 16.25 8C16.25 7.27066 16.5397 6.57118 17.0555 6.05546C17.3902 5.72068 17.8025 5.48113 18.25 5.35424V3C18.25 2.66848 18.1183 2.35054 17.8839 2.11612C17.6495 1.8817 17.3315 1.75 17 1.75H13.75V3C13.75 3.41421 13.4142 3.75 13 3.75C12.5858 3.75 12.25 3.41421 12.25 3V1.75H3ZM3 0.25C2.27065 0.25 1.57118 0.539731 1.05546 1.05546C0.539731 1.57118 0.25 2.27065 0.25 3V6C0.25 6.41421 0.585786 6.75 1 6.75C1.33152 6.75 1.64946 6.8817 1.88388 7.11612C2.1183 7.35054 2.25 7.66848 2.25 8C2.25 8.33152 2.1183 8.64946 1.88388 8.88388C1.64946 9.11831 1.33152 9.25 1 9.25C0.585786 9.25 0.25 9.58579 0.25 10V13C0.25 13.7293 0.539731 14.4288 1.05546 14.9445C1.57118 15.4603 2.27065 15.75 3 15.75H17C17.7293 15.75 18.4288 15.4603 18.9445 14.9445C19.4603 14.4288 19.75 13.7293 19.75 13V10C19.75 9.58579 19.4142 9.25 19 9.25C18.6685 9.25 18.3505 9.11831 18.1161 8.88388C17.8817 8.64946 17.75 8.33152 17.75 8C17.75 7.66848 17.8817 7.35054 18.1161 7.11612C18.3505 6.8817 18.6685 6.75 19 6.75C19.4142 6.75 19.75 6.41421 19.75 6V3C19.75 2.27065 19.4603 1.57118 18.9445 1.05546C18.4288 0.539731 17.7293 0.25 17 0.25H3ZM13 6.25C13.4142 6.25 13.75 6.58579 13.75 7V9C13.75 9.41421 13.4142 9.75 13 9.75C12.5858 9.75 12.25 9.41421 12.25 9V7C12.25 6.58579 12.5858 6.25 13 6.25Z" fill="#06D6A0"/></svg>