<svg xmlns:xlink="http://www.w3.org/1999/xlink" viewBox="0 0 19 18" color="text" width="20" xmlns="http://www.w3.org/2000/svg" class="sc-grXZZQ ktVOoD" height="19" ><path d="M5.53247 8.998C5.53247 10.3983 4.90523 11.5327 4.13369 11.5327C3.36216 11.5327 2.73291 10.3983 2.73291 8.998C2.73291 7.59766 3.36016 6.46328 4.13169 6.46328C4.90322 6.46328 5.53047 7.59766 5.53047 8.998M6.81703 8.998C6.81703 9.45135 6.7529 9.90269 6.62264 10.3117C6.49639 10.7086 6.31403 11.0874 6.08156 11.438C5.94129 11.6496 5.63868 12.1211 5.89319 12.3024C5.93728 12.3326 5.99539 12.3548 6.07555 12.3669C6.56853 12.4374 7.02143 12.1271 7.35409 11.8108C7.71681 11.4662 8.0094 11.0552 8.20979 10.6019C8.65668 9.59239 8.65668 8.40563 8.20979 7.39819C8.0094 6.94685 7.71681 6.5338 7.35409 6.18926C7.02143 5.87292 6.56653 5.56263 6.07555 5.63315C5.99539 5.64524 5.93728 5.6674 5.89319 5.69763C5.63668 5.87897 5.94129 6.35045 6.08156 6.56201C6.31403 6.91059 6.49639 7.2914 6.62264 7.68833C6.7529 8.09735 6.81703 8.54869 6.81703 9.00203M9.83703 9.00203C9.83703 9.58232 9.75286 10.1626 9.58653 10.6845C9.42421 11.1922 9.18974 11.6798 8.89315 12.1271C8.71279 12.3971 8.32402 13.0016 8.65267 13.2333C8.70879 13.2716 8.78494 13.3018 8.88514 13.3159C9.51639 13.4066 10.0975 13.0076 10.5244 12.6026C10.9893 12.1614 11.3641 11.6335 11.6206 11.0552C12.1857 9.78179 12.1877 8.22832 11.6206 6.94887C11.3641 6.3706 10.9893 5.8427 10.5244 5.40144C10.0975 4.99645 9.51639 4.5975 8.88514 4.68817C8.78293 4.70227 8.70678 4.73048 8.65267 4.77078C8.32402 5.00249 8.71279 5.60696 8.89315 5.87695C9.18974 6.32425 9.42421 6.81186 9.58653 7.31961C9.75286 7.84146 9.83703 8.42175 9.83703 9.00203ZM13.35 9.00203C13.35 9.72739 13.2458 10.4528 13.0374 11.1056C12.835 11.7403 12.5424 12.3508 12.1717 12.9089C11.9472 13.2474 11.4623 14.003 11.8711 14.2931C11.9412 14.3415 12.0354 14.3777 12.1616 14.3959C12.9512 14.5087 13.6767 14.011 14.2117 13.5033C14.7929 12.9512 15.2618 12.2923 15.5824 11.567C16.2999 9.94903 16.2999 8.04899 15.5824 6.43306C15.2618 5.70972 14.7929 5.04883 14.2117 4.49676C13.6787 3.98901 12.9512 3.49133 12.1637 3.60416C12.0374 3.6223 11.9412 3.65856 11.8731 3.70692C11.4623 3.99706 11.9492 4.75265 12.1737 5.09115C12.5444 5.65128 12.837 6.25978 13.0394 6.89447C13.2478 7.54729 13.352 8.27265 13.352 8.998" fill="#FFFFFF"></path></svg>